<svg xmlns="http://www.w3.org/2000/svg" width="1820" height="383" viewBox="0 0 1820 383" fill="none"><path fill-rule="evenodd" clip-rule="evenodd" d="M91 216.768V291.463H154.686C185.066 291.463 205.482 288.676 215.933 283.171C226.385 277.528 231.541 267.633 231.611 253.489C231.611 239.901 226.664 230.495 216.839 225.129C207.154 219.625 186.459 216.838 154.686 216.838H91V216.768ZM91 89.1172V158.656H147.788C174.335 158.656 192.382 156.008 202.137 150.643C211.822 145.278 216.63 135.941 216.63 122.702C216.63 110.16 212.171 101.45 203.252 96.5728C194.333 91.6256 175.799 89.1869 147.788 89.1869H91V89.1172ZM0 355.567V25.9189H166.949C194.333 25.9189 215.236 26.8248 229.521 28.5667C243.805 30.1693 255.998 33.0261 265.962 37.0675C281.431 42.8508 293.555 52.3967 302.195 65.7053C310.975 78.8048 315.364 94.0644 315.364 111.554C315.364 130.646 309.581 145.975 297.945 157.611C286.448 169.108 268.262 177.609 243.387 183.113C270.84 184.786 291.743 192.45 306.167 206.177C320.799 219.764 328.046 238.577 328.046 262.756C328.046 277.667 325.189 290.906 319.545 302.542C313.901 314.178 305.47 324.003 294.252 332.016C282.337 340.517 267.286 346.648 249.1 350.341C230.914 353.895 203.531 355.707 166.81 355.707H0V355.567Z" fill="#D9861C"></path><path fill-rule="evenodd" clip-rule="evenodd" d="M446.079 25.9189H541.748V211.891C541.748 238.717 548.297 258.714 561.397 271.814C574.496 284.913 594.494 291.463 621.32 291.463C649.47 291.463 670.304 284.983 683.891 272.023C697.479 258.923 704.238 238.856 704.238 211.891V25.9189H799.906V212.309C799.906 263.871 785.552 301.567 756.775 325.397C728.137 349.227 682.846 361.142 620.902 361.142C591.428 361.142 565.299 358.145 542.653 352.223C520.008 346.23 501.682 337.59 487.677 326.302C472.766 314.109 462.105 299.407 455.695 282.266C449.284 264.985 446.079 241.643 446.079 212.309V25.9189Z" fill="#D9861C"></path><path d="M1052.28 25.9189H957.937V355.567H1052.28V25.9189Z" fill="#D9861C"></path><path d="M885.125 0H876.207V382.325H885.125V0Z" fill="#43525A"></path><path d="M385.881 0H376.962V382.325H385.881V0Z" fill="#43525A"></path><path d="M1175.26 93.9212V25.7061H1183.21V93.9212H1175.26Z" fill="#43525A"></path><path d="M1255.19 93.9212H1246.13L1208.85 36.7152H1208.5C1208.99 43.4044 1209.27 49.6057 1209.27 55.18V93.9212H1201.95V25.7061H1210.94L1248.15 82.703H1248.5C1248.5 81.8668 1248.29 79.1494 1248.08 74.6203C1247.87 70.0912 1247.8 66.8163 1247.87 64.8653V25.7061H1255.26V93.9212H1255.19Z" fill="#43525A"></path><path d="M1327.16 93.9212H1318.1L1280.83 36.7152H1280.48C1280.96 43.4044 1281.24 49.6057 1281.24 55.18V93.9212H1273.93V25.7061H1282.92L1320.12 82.703H1320.47C1320.47 81.8668 1320.26 79.1494 1320.05 74.6203C1319.85 70.0912 1319.78 66.8163 1319.85 64.8653V25.7061H1327.23V93.9212H1327.16Z" fill="#43525A"></path><path d="M1405.13 59.7113C1405.13 70.6508 1402.35 79.2213 1396.84 85.4923C1391.34 91.7634 1383.67 94.8989 1373.85 94.8989C1364.02 94.8989 1356.08 91.833 1350.58 85.7013C1345.14 79.5696 1342.42 70.8598 1342.42 59.7113C1342.42 48.5628 1345.14 39.9923 1350.65 33.8606C1356.15 27.7289 1363.88 24.6631 1373.99 24.6631C1384.09 24.6631 1391.41 27.7986 1396.91 34C1402.42 40.2014 1405.2 48.7718 1405.2 59.781L1405.13 59.7113ZM1350.78 59.7113C1350.78 68.9785 1352.74 75.9464 1356.71 80.7542C1360.61 85.562 1366.32 87.931 1373.85 87.931C1381.37 87.931 1387.09 85.562 1390.99 80.8239C1394.82 76.0857 1396.77 69.0482 1396.77 59.781C1396.77 50.5138 1394.82 43.6156 1390.99 38.8775C1387.16 34.1393 1381.44 31.7703 1373.92 31.7703C1366.39 31.7703 1360.61 34.1393 1356.71 38.9472C1352.81 43.755 1350.78 50.6531 1350.78 59.781V59.7113Z" fill="#43525A"></path><path d="M1459.28 25.7061H1467.85L1443.25 93.9212H1435.45L1410.99 25.7061H1419.42L1435.1 69.8125C1436.91 74.899 1438.3 79.8462 1439.42 84.5843C1440.53 79.5674 1442 74.5506 1443.81 69.5337L1459.41 25.7061H1459.28Z" fill="#43525A"></path><path d="M1520.1 93.9255L1511.6 72.2555H1484.29L1475.86 93.9255H1467.84L1494.81 25.4316H1501.5L1528.32 93.9255H1520.1ZM1509.16 65.0786L1501.22 43.9661C1500.17 41.3183 1499.13 38.0434 1498.01 34.1414C1497.32 37.1376 1496.34 40.4125 1495.09 43.9661L1487.07 65.0786H1509.16Z" fill="#43525A"></path><path d="M1558.7 93.9212H1550.76V32.7436H1529.16V25.7061H1580.31V32.7436H1558.7V93.9212Z" fill="#43525A"></path><path d="M1590.55 93.9212V25.7061H1598.5V93.9212H1590.55Z" fill="#43525A"></path><path d="M1676.39 59.7113C1676.39 70.6508 1673.6 79.2213 1668.1 85.4923C1662.6 91.7634 1654.93 94.8989 1645.11 94.8989C1635.28 94.8989 1627.34 91.833 1621.83 85.7013C1616.4 79.5696 1613.68 70.8598 1613.68 59.7113C1613.68 48.5628 1616.4 39.9923 1621.9 33.8606C1627.41 27.7289 1635.14 24.6631 1645.25 24.6631C1655.35 24.6631 1662.67 27.7986 1668.17 34C1673.67 40.2014 1676.46 48.7718 1676.46 59.781L1676.39 59.7113ZM1622.04 59.7113C1622.04 68.9785 1623.99 75.9464 1627.97 80.7542C1631.87 85.562 1637.58 87.931 1645.11 87.931C1652.63 87.931 1658.35 85.562 1662.25 80.8239C1666.08 76.0857 1668.03 69.0482 1668.03 59.781C1668.03 50.5138 1666.08 43.6156 1662.25 38.8775C1658.41 34.1393 1652.7 31.7703 1645.18 31.7703C1637.65 31.7703 1631.87 34.1393 1627.97 38.9472C1624.06 43.755 1622.04 50.6531 1622.04 59.781V59.7113Z" fill="#43525A"></path><path d="M1744.89 93.9212H1735.83L1698.55 36.7152H1698.2C1698.69 43.4044 1698.97 49.6057 1698.97 55.18V93.9212H1691.65V25.7061H1700.64L1737.85 82.703H1738.2C1738.2 81.8668 1737.99 79.1494 1737.78 74.6203C1737.57 70.0912 1737.5 66.8163 1737.57 64.8653V25.7061H1744.95V93.9212H1744.89Z" fill="#43525A"></path><path d="M1229.68 190.497C1229.68 201.785 1226.62 210.355 1220.49 216.348C1214.35 222.27 1205.58 225.266 1194.08 225.266H1175.2V157.051H1196.1C1206.69 157.051 1214.91 159.978 1220.83 165.9C1226.76 171.823 1229.68 179.975 1229.68 190.567V190.497ZM1221.25 190.776C1221.25 181.857 1219.02 175.168 1214.56 170.639C1210.1 166.109 1203.48 163.88 1194.64 163.88H1183.14V218.368H1192.82C1202.3 218.368 1209.41 216.069 1214.15 211.4C1218.88 206.732 1221.25 199.903 1221.25 190.776Z" fill="#43525A"></path><path d="M1282.92 225.266H1244.87V157.051H1282.92V164.089H1252.82V186.037H1281.1V193.005H1252.82V218.09H1282.92V225.197V225.266Z" fill="#43525A"></path><path d="M1298.04 225.266V157.051H1305.98V218.09H1336.08V225.266H1298.04Z" fill="#43525A"></path><path d="M1347.65 225.266V157.051H1355.59V225.266H1347.65Z" fill="#43525A"></path><path d="M1413.22 157.051H1421.79L1397.19 225.266H1389.39L1364.93 157.051H1373.36L1389.04 201.158C1390.85 206.244 1392.24 211.191 1393.36 215.929C1394.47 210.913 1395.94 205.896 1397.75 200.879L1413.36 157.051H1413.22Z" fill="#43525A"></path><path d="M1469.17 225.266H1431.12V157.051H1469.17V164.089H1439.07V186.037H1467.36V193.005H1439.07V218.09H1469.17V225.197V225.266Z" fill="#43525A"></path><path d="M1492.23 196.907V225.266H1484.29V157.051H1502.96C1511.32 157.051 1517.53 158.654 1521.5 161.859C1525.47 165.064 1527.49 169.872 1527.49 176.352C1527.49 185.341 1522.89 191.472 1513.76 194.608L1532.3 225.266H1522.89L1506.38 196.907H1492.16H1492.23ZM1492.23 190.079H1503.1C1508.68 190.079 1512.79 188.964 1515.43 186.734C1518.08 184.505 1519.34 181.16 1519.34 176.701C1519.34 172.241 1518.01 168.966 1515.37 166.946C1512.72 164.925 1508.47 163.949 1502.54 163.949H1492.23V190.009V190.079Z" fill="#43525A"></path><path d="M1560.66 191.192L1578.84 157.12H1587.41L1564.63 198.857V225.335H1556.62V199.275L1533.9 157.12H1542.61L1560.66 191.192Z" fill="#43525A"></path><path d="M1183.21 328.321V356.68H1175.26V288.465H1193.94C1202.3 288.465 1208.5 290.067 1212.47 293.273C1216.44 296.478 1218.46 301.286 1218.46 307.766C1218.46 316.754 1213.87 322.886 1204.74 326.021L1223.27 356.68H1213.87L1197.35 328.321H1183.14H1183.21ZM1183.21 321.492H1194.08C1199.65 321.492 1203.76 320.378 1206.41 318.148C1209.06 315.918 1210.31 312.574 1210.31 308.114C1210.31 303.655 1208.99 300.38 1206.34 298.359C1203.69 296.338 1199.44 295.363 1193.52 295.363H1183.21V321.423V321.492Z" fill="#43525A"></path><path d="M1272.33 356.68H1234.28V288.465H1272.33V295.502H1242.23V317.451H1270.52V324.419H1242.23V349.503H1272.33V356.61V356.68Z" fill="#43525A"></path><path d="M1325.91 338.495C1325.91 344.487 1323.75 349.156 1319.36 352.57C1315.04 355.914 1309.11 357.587 1301.66 357.587C1293.58 357.587 1287.38 356.542 1282.99 354.451V346.787C1285.77 347.971 1288.84 348.877 1292.11 349.574C1295.39 350.27 1298.66 350.619 1301.94 350.619C1307.23 350.619 1311.21 349.643 1313.85 347.623C1316.5 345.602 1317.89 342.815 1317.89 339.261C1317.89 336.892 1317.41 334.941 1316.5 333.478C1315.53 331.945 1313.99 330.551 1311.76 329.297C1309.53 328.043 1306.19 326.58 1301.59 324.977C1295.25 322.678 1290.72 320.03 1288 316.895C1285.28 313.759 1283.89 309.718 1283.89 304.701C1283.89 299.475 1285.84 295.294 1289.81 292.159C1293.79 289.023 1299.01 287.49 1305.49 287.49C1311.97 287.49 1318.52 288.744 1324.23 291.253L1321.8 298.151C1316.15 295.782 1310.72 294.597 1305.35 294.597C1301.17 294.597 1297.9 295.503 1295.53 297.315C1293.16 299.127 1291.97 301.635 1291.97 304.84C1291.97 307.209 1292.39 309.16 1293.3 310.623C1294.13 312.156 1295.67 313.55 1297.69 314.804C1299.71 316.058 1302.91 317.452 1307.16 318.985C1314.34 321.563 1319.22 324.28 1321.94 327.207C1324.65 330.133 1325.98 333.896 1325.98 338.564L1325.91 338.495Z" fill="#43525A"></path><path d="M1391.41 288.465V332.571C1391.41 340.375 1389.04 346.437 1384.37 350.897C1379.7 355.356 1373.22 357.586 1365 357.586C1356.78 357.586 1350.44 355.356 1345.98 350.897C1341.45 346.437 1339.22 340.236 1339.22 332.432V288.465H1347.16V332.989C1347.16 338.703 1348.69 343.023 1351.83 346.089C1354.97 349.155 1359.5 350.688 1365.56 350.688C1371.62 350.688 1375.73 349.155 1378.87 346.089C1382 343.023 1383.53 338.633 1383.53 332.92V288.535H1391.48L1391.41 288.465Z" fill="#43525A"></path><path d="M1409.45 356.68V288.465H1417.39V349.503H1447.5V356.68H1409.45Z" fill="#43525A"></path><path d="M1480.04 356.68H1472.1V295.502H1450.5V288.465H1501.64V295.502H1480.04V356.68Z" fill="#43525A"></path><path d="M1550.34 338.495C1550.34 344.487 1548.18 349.156 1543.79 352.57C1539.47 355.914 1533.55 357.587 1526.1 357.587C1518.01 357.587 1511.81 356.542 1507.42 354.451V346.787C1510.21 347.971 1513.27 348.877 1516.55 349.574C1519.82 350.27 1523.1 350.619 1526.37 350.619C1531.67 350.619 1535.64 349.643 1538.29 347.623C1540.94 345.602 1542.33 342.815 1542.33 339.261C1542.33 336.892 1541.84 334.941 1540.94 333.478C1539.96 331.945 1538.43 330.551 1536.2 329.297C1533.97 328.043 1530.62 326.58 1526.03 324.977C1519.68 322.678 1515.16 320.03 1512.44 316.895C1509.72 313.759 1508.33 309.718 1508.33 304.701C1508.33 299.475 1510.28 295.294 1514.25 292.159C1518.22 289.023 1523.45 287.49 1529.93 287.49C1536.41 287.49 1542.96 288.744 1548.67 291.253L1546.23 298.151C1540.59 295.782 1535.15 294.597 1529.79 294.597C1525.61 294.597 1522.33 295.503 1519.96 297.315C1517.59 299.127 1516.41 301.635 1516.41 304.84C1516.41 307.209 1516.83 309.16 1517.73 310.623C1518.57 312.156 1520.1 313.55 1522.12 314.804C1524.14 316.058 1527.35 317.452 1531.6 318.985C1538.78 321.563 1543.65 324.28 1546.37 327.207C1549.09 330.133 1550.41 333.896 1550.41 338.564L1550.34 338.495Z" fill="#43525A"></path><path d="M1781.68 43.8981H1778.61V20.3469H1770.32V17.6294H1790.04V20.3469H1781.75V43.8981H1781.68Z" fill="#43525A"></path><path d="M1805.58 43.8981L1796.66 20.6256H1796.52C1796.66 22.4372 1796.8 24.6669 1796.8 27.1753V43.8981H1793.94V17.6294H1798.54L1806.83 39.2994H1806.97L1815.4 17.6294H1820V43.8981H1816.93V26.9663C1816.93 25.0153 1817 22.925 1817.21 20.6256H1817.07L1808.09 43.8981H1805.65H1805.58Z" fill="#43525A"></path></svg>